<svg width="48" height="47" viewBox="0 0 48 47" fill="none" xmlns="http://www.w3.org/2000/svg">
<g clip-path="url(#clip0)">
<path d="M28.8001 15.5517C27.3149 15.5517 25.8905 16.1621 24.8403 17.2485C23.7901 18.3349 23.2001 19.8084 23.2001 21.3448C23.2001 22.8813 23.7901 24.3548 24.8403 25.4412C25.8905 26.5276 27.3149 27.138 28.8001 27.138C30.2853 27.138 31.7097 26.5276 32.7599 25.4412C33.8101 24.3548 34.4001 22.8813 34.4001 21.3448C34.4001 19.8084 33.8101 18.3349 32.7599 17.2485C31.7097 16.1621 30.2853 15.5517 28.8001 15.5517ZM28.8001 18.8621C29.4366 18.8621 30.0471 19.1237 30.4972 19.5893C30.9472 20.0549 31.2001 20.6864 31.2001 21.3448C31.2001 22.0033 30.9472 22.6348 30.4972 23.1004C30.0471 23.566 29.4366 23.8276 28.8001 23.8276C28.1636 23.8276 27.5531 23.566 27.103 23.1004C26.653 22.6348 26.4001 22.0033 26.4001 21.3448C26.4001 20.6864 26.653 20.0549 27.103 19.5893C27.5531 19.1237 28.1636 18.8621 28.8001 18.8621ZM18.4001 20.5173C17.3392 20.5173 16.3218 20.9532 15.5717 21.7292C14.8215 22.5052 14.4001 23.5577 14.4001 24.6552C14.4001 26.2111 15.2481 27.5517 16.4641 28.2635C17.0401 28.5945 17.6961 28.7931 18.4001 28.7931C19.1041 28.7931 19.7601 28.5945 20.3361 28.2635C20.9281 27.9159 21.4241 27.4193 21.7921 26.8235C20.6241 25.2511 20.0001 23.3311 20.0001 21.3448C20.0001 21.1959 20.0001 21.0304 20.0001 20.8814C19.5201 20.6497 18.9761 20.5173 18.4001 20.5173ZM39.2001 20.5173C38.6241 20.5173 38.0801 20.6497 37.6001 20.8814C37.6001 21.0304 37.6001 21.1959 37.6001 21.3448C37.6001 23.3311 36.9761 25.2511 35.8081 26.8235C36.0001 27.138 36.2081 27.3862 36.4481 27.6345C36.7041 27.8828 36.9601 28.098 37.2641 28.2635C37.8401 28.5945 38.4961 28.7931 39.2001 28.7931C39.9041 28.7931 40.5601 28.5945 41.1361 28.2635C42.3521 27.5517 43.2001 26.2111 43.2001 24.6552C43.2001 23.5577 42.7787 22.5052 42.0285 21.7292C41.2784 20.9532 40.261 20.5173 39.2001 20.5173ZM28.8001 30.4483C25.0561 30.4483 17.6001 32.3848 17.6001 36.2414V38.7242H40.0001V36.2414C40.0001 32.3848 32.5441 30.4483 28.8001 30.4483ZM17.1361 31.3586C14.0481 31.7393 9.6001 33.3614 9.6001 36.2414V38.7242H14.4001V35.5297C14.4001 33.858 15.5041 32.4676 17.1361 31.3586ZM40.4641 31.3586C42.0961 32.4676 43.2001 33.858 43.2001 35.5297V38.7242H48.0001V36.2414C48.0001 33.3614 43.5521 31.7393 40.4641 31.3586ZM28.8001 33.7586C31.2481 33.7586 33.9841 34.5862 35.5681 35.4138H22.0321C23.6161 34.5862 26.3521 33.7586 28.8001 33.7586Z" fill="white"/>
</g>
<path d="M14.12 8.46L19.78 14.12L14.12 19.78L8.45997 14.12L4.21997 18.36V4.22H18.36L14.12 8.46ZM6.33997 13.41L8.45997 11.29L14.12 16.95L16.95 14.12L11.29 8.47L13.41 6.34H6.33997V13.41Z" fill="white"/>
<defs>
<clipPath id="clip0">
<rect width="38.4" height="39.7241" fill="white" transform="translate(9.6001 7.27588)"/>
</clipPath>
</defs>
</svg>
