<svg width="24" height="24" viewBox="0 0 24 24" fill="none" xmlns="http://www.w3.org/2000/svg">
<path d="M20.0099 18.1404L20.0101 18.1414L20.0101 18.1418L20.0102 18.1421L20.0102 18.1422L20.0173 18.1925L20.0278 18.2343C20.0281 18.2359 20.0286 18.2381 20.0292 18.241C20.0317 18.2536 20.0363 18.2783 20.0413 18.3133C20.0514 18.3839 20.0625 18.4923 20.0625 18.625C20.0625 18.8954 20.0166 19.2307 19.8556 19.5528C19.5833 20.0973 18.7722 21 16 21H15.9649H15.9299H15.8949H15.8601H15.8254H15.7907H15.7561H15.7217H15.6873H15.653H15.6188H15.5847H15.5507H15.5167H15.4829H15.4492H15.4155H15.3819H15.3485H15.3151H15.2818H15.2486H15.2154H15.1824H15.1495H15.1166H15.0839H15.0512H15.0186H14.9861H14.9537H14.9214H14.8892H14.857H14.825H14.793H14.7611H14.7293H14.6976H14.666H14.6345H14.6031H14.5717H14.5405H14.5093H14.4782H14.4472H14.4163H14.3855H14.3548H14.3241H14.2936H14.2631H14.2327H14.2024H14.1722H14.1421H14.112H14.0821H14.0522H14.0224H13.9927H13.9631H13.9336H13.9042H13.8748H13.8455H13.8164H13.7873H13.7583H13.7293H13.7005H13.6717H13.6431H13.6145H13.586H13.5576H13.5292H13.501H13.4728H13.4448H13.4168H13.3889H13.361H13.3333H13.3056H13.2781H13.2506H13.2232H13.1959H13.1686H13.1415H13.1144H13.0874H13.0605H13.0337H13.007H12.9803H12.9537H12.9272H12.9008H12.8745H12.8483H12.8221H12.796H12.77H12.7441H12.7183H12.6925H12.6669H12.6413H12.6158H12.5904H12.565H12.5398H12.5146H12.4895H12.4645H12.4395H12.4147H12.3899H12.3652H12.3406H12.3161H12.2916H12.2673H12.243H12.2188H12.1946H12.1706H12.1466H12.1227H12.0989H12.0752H12.0515H12.0279H12.0045H11.981H11.9577H11.9345H11.9113H11.8882H11.8652H11.8422H11.8194H11.7966H11.7739H11.7513H11.7287H11.7062H11.6839H11.6615H11.6393H11.6171H11.5951H11.5731H11.5511H11.5293H11.5075H11.4858H11.4642H11.4427H11.4212H11.3998H11.3785H11.3573H11.3362H11.3151H11.2941H11.2732H11.2523H11.2316H11.2109H11.1902H11.1697H11.1492H11.1288H11.1085H11.0883H11.0681H11.048H11.028H11.0081H10.9882H10.9684H10.9487H10.9291H10.9095H10.89H10.8706H10.8513H10.832H10.8128H10.7937H10.7747H10.7557H10.7368H10.718H10.6993H10.6806H10.662H10.6435H10.625H10.6066H10.5883H10.5701H10.552H10.5339H10.5159H10.4979H10.4801H10.4623H10.4445H10.4269H10.4093H10.3918H10.3744H10.357H10.3397H10.3225H10.3054H10.2883H10.2713H10.2544H10.2375H10.2208H10.204H10.1874H10.1708H10.1543H10.1379H10.1215H10.1053H10.089H10.0729H10.0568H10.0408H10.0249H10.009H9.99323H9.9775H9.96185H9.94627H9.93075H9.91531H9.89993H9.88463H9.86939H9.85423H9.83913H9.8241H9.80914H9.79426H9.77944H9.76468H9.75H9.73539H9.72084H9.70636H9.69196H9.67762H9.66334H9.64914H9.635H9.62093H9.60693H9.593H9.57914H9.56534H9.55161H9.53795H9.52435H9.51083H9.49737H9.48397H9.47065H9.45739H9.44419H9.43107H9.41801H9.40501H9.39209H9.37923H9.36643H9.35371H9.34104H9.32845H9.31592H9.30345H9.29106H9.27872H9.26646H9.25425H9.24212H9.23005H9.21804H9.2061H9.19422H9.18241H9.17067H9.15899H9.14737H9.13582H9.12433H9.11291H9.10155H9.09025H9.07902H9.06785H9.05675H9.04571H9.03474H9.02383H9.01298H9.00219H8.99147H8.98081H8.97022H8.95969H8.94922H8.93881H8.92847H8.91819H8.90797H8.89782H8.88773H8.8777H8.86773H8.85782H8.84798H8.8382H8.82848H8.81882H8.80923H8.7997H8.79022H8.78081H8.77146H8.76218H8.75295H8.74378H8.73468H8.72564H8.71665H8.70773H8.69887H8.69007H8.68133H8.67265H8.66403H8.65547H8.64697H8.63853H8.63016H8.62184H8.61358H8.60538H8.59724H8.58916H8.58114H8.57318H8.56528H8.55743H8.54965H8.54193H8.53426H8.52665H8.5191H8.51162H8.50418H8.49681H8.4895H8.48224H8.47504H8.46791H8.46082H8.4538H8.44683H8.43993H8.43308H8.42628H8.41955H8.41287H8.40625H8.39969H8.39318H8.38673H8.38034H8.374H8.36773H8.3615H8.35534H8.34923H8.34318H8.33718H8.33124H8.32536H8.31953H8.31376H8.30804H8.30239H8.29678H8.29123H8.28574H8.2803H8.27492H8.26959H8.26432H8.2591H8.25394H8.24884H8.24378H8.23879H8.23384H8.22896H8.22412H8.21934H8.21462H8.20995H8.20533H8.20077H8.19626H8.1918H8.1874H8.18305H8.17876H8.17452H8.17033H8.1662H8.16212H8.15809H8.15411H8.15019H8.14632H8.14251H8.13874H8.13503H8.13137H8.12777H8.12421H8.12071H8.11726H8.11387H8.11052H8.10723H8.10399H8.1008H8.09766H8.09457H8.09153H8.08855H8.08562H8.08273H8.0799H8.07712H8.07439H8.07172H8.06909H8.06651H8.06399H8.06151H8.05908H8.05671H8.05438H8.05211H8.04988H8.04771H8.04558H8.04351H8.04148H8.0395H8.03758H8.0357H8.03387H8.03209H8.03036H8.02868H8.02704H8.02546H8.02393H8.02244H8.021H8.01961H8.01827H8.01698H8.01573H8.01454H8.01339H8.01229H8.01124H8.01023H8.00927H8.00837H8.0075H8.00669H8.00592H8.0052H8.00453H8.0039H8.00332H8.00279H8.0023H8.00187H8.00147H8.00113H8.00083H8.00057H8.00037H8.00021H8.00009H8.00002C5.22776 21 4.41667 20.0973 4.14443 19.5528C3.98341 19.2307 3.9375 18.8954 3.9375 18.625C3.9375 18.4923 3.94862 18.3839 3.9587 18.3133C3.96369 18.2783 3.96829 18.2536 3.97082 18.241C3.97131 18.2386 3.97172 18.2366 3.97204 18.2351C3.97209 18.2348 3.97214 18.2346 3.97219 18.2343L3.98265 18.1925L3.98984 18.1422L3.98985 18.1421L3.98989 18.1418L3.98995 18.1414L3.9901 18.1404L3.99173 18.1295L3.99959 18.0793C4.00694 18.0334 4.01857 17.9635 4.03496 17.8725C4.06777 17.6902 4.1195 17.4239 4.19388 17.0966C4.3431 16.4401 4.58126 15.548 4.93633 14.6011C5.63882 12.7278 6.71315 10.8728 8.24944 10H15.7506C17.2869 10.8728 18.3612 12.7278 19.0637 14.6011C19.4187 15.548 19.6569 16.4401 19.8061 17.0966C19.8805 17.4239 19.9322 17.6902 19.965 17.8725C19.9814 17.9635 19.9931 18.0334 20.0004 18.0793L20.0083 18.1295L20.0099 18.1404ZM14.4472 4.89443L16.0947 4.07069L15.323 6H8.67703L7.90531 4.07069L9.55279 4.89443L10.1975 5.21676L10.7071 4.70711L12 3.41421L13.2929 4.70711L13.8025 5.21676L14.4472 4.89443Z" stroke="#083749" stroke-width="2"/>
</svg>
