<svg width="31" height="24" viewBox="0 0 31 24" fill="none" xmlns="http://www.w3.org/2000/svg">
<path d="M19 4C20.0609 4 21.0783 4.42143 21.8284 5.17157C22.5786 5.92172 23 6.93913 23 8C23 9.06087 22.5786 10.0783 21.8284 10.8284C21.0783 11.5786 20.0609 12 19 12C17.9391 12 16.9217 11.5786 16.1716 10.8284C15.4214 10.0783 15 9.06087 15 8C15 6.93913 15.4214 5.92172 16.1716 5.17157C16.9217 4.42143 17.9391 4 19 4ZM19 6C18.4696 6 17.9609 6.21071 17.5858 6.58579C17.2107 6.96086 17 7.46957 17 8C17 8.53043 17.2107 9.03914 17.5858 9.41421C17.9609 9.78929 18.4696 10 19 10C19.5304 10 20.0391 9.78929 20.4142 9.41421C20.7893 9.03914 21 8.53043 21 8C21 7.46957 20.7893 6.96086 20.4142 6.58579C20.0391 6.21071 19.5304 6 19 6ZM19 13C21.67 13 27 14.33 27 17V20H11V17C11 14.33 16.33 13 19 13ZM19 14.9C16.03 14.9 12.9 16.36 12.9 17V18.1H25.1V17C25.1 16.36 21.97 14.9 19 14.9Z" fill="#083749"/>
<path d="M5 10.3333C3.1625 10.3333 1.66667 8.83748 1.66667 6.99998C1.66667 5.16248 3.1625 3.66665 5 3.66665C6.8375 3.66665 8.33333 5.16248 8.33333 6.99998C8.33333 8.83748 6.8375 10.3333 5 10.3333ZM5 2.83331C4.45282 2.83331 3.91101 2.94109 3.40548 3.15048C2.89996 3.35988 2.44063 3.66679 2.05372 4.0537C1.27232 4.8351 0.833332 5.89491 0.833332 6.99998C0.833332 8.10505 1.27232 9.16486 2.05372 9.94626C2.44063 10.3332 2.89996 10.6401 3.40548 10.8495C3.91101 11.0589 4.45282 11.1666 5 11.1666C6.10507 11.1666 7.16488 10.7277 7.94628 9.94626C8.72768 9.16486 9.16667 8.10505 9.16667 6.99998C9.16667 6.45281 9.05889 5.91099 8.8495 5.40547C8.6401 4.89994 8.33319 4.44061 7.94628 4.0537C7.55937 3.66679 7.10004 3.35988 6.59451 3.15048C6.08899 2.94109 5.54717 2.83331 5 2.83331ZM5.41667 4.91665H4.58333V6.58331H2.91667V7.41665H4.58333V9.08331H5.41667V7.41665H7.08333V6.58331H5.41667V4.91665Z" fill="#083749"/>
<path d="M5 20.3333C3.1625 20.3333 1.66667 18.8375 1.66667 17C1.66667 15.1625 3.1625 13.6666 5 13.6666C6.8375 13.6666 8.33333 15.1625 8.33333 17C8.33333 18.8375 6.8375 20.3333 5 20.3333ZM5 12.8333C4.45283 12.8333 3.91101 12.9411 3.40549 13.1505C2.89996 13.3599 2.44063 13.6668 2.05372 14.0537C1.27232 14.8351 0.833334 15.8949 0.833334 17C0.833334 18.105 1.27232 19.1649 2.05372 19.9463C2.44063 20.3332 2.89996 20.6401 3.40549 20.8495C3.91101 21.0589 4.45283 21.1666 5 21.1666C6.10507 21.1666 7.16488 20.7277 7.94628 19.9463C8.72768 19.1649 9.16667 18.105 9.16667 17C9.16667 16.4528 9.05889 15.911 8.8495 15.4055C8.6401 14.8999 8.33319 14.4406 7.94628 14.0537C7.55937 13.6668 7.10004 13.3599 6.59452 13.1505C6.08899 12.9411 5.54718 12.8333 5 12.8333ZM2.91667 17.4166H7.08333V16.5833H2.91667" fill="#083749"/>
</svg>
