<svg width="48" height="48" viewBox="0 0 48 48" fill="none" xmlns="http://www.w3.org/2000/svg">
<g clip-path="url(#clip0)">
<path d="M28.8001 16.5517C27.3149 16.5517 25.8905 17.1621 24.8403 18.2485C23.7901 19.3349 23.2001 20.8084 23.2001 22.3449C23.2001 23.8813 23.7901 25.3548 24.8403 26.4412C25.8905 27.5276 27.3149 28.138 28.8001 28.138C30.2853 28.138 31.7097 27.5276 32.7599 26.4412C33.8101 25.3548 34.4001 23.8813 34.4001 22.3449C34.4001 20.8084 33.8101 19.3349 32.7599 18.2485C31.7097 17.1621 30.2853 16.5517 28.8001 16.5517ZM28.8001 19.8621C29.4366 19.8621 30.0471 20.1237 30.4972 20.5893C30.9472 21.0549 31.2001 21.6864 31.2001 22.3449C31.2001 23.0033 30.9472 23.6348 30.4972 24.1004C30.0471 24.566 29.4366 24.8276 28.8001 24.8276C28.1636 24.8276 27.5531 24.566 27.103 24.1004C26.653 23.6348 26.4001 23.0033 26.4001 22.3449C26.4001 21.6864 26.653 21.0549 27.103 20.5893C27.5531 20.1237 28.1636 19.8621 28.8001 19.8621ZM18.4001 21.5173C17.3392 21.5173 16.3218 21.9532 15.5717 22.7292C14.8215 23.5053 14.4001 24.5578 14.4001 25.6552C14.4001 27.2111 15.2481 28.5518 16.4641 29.2635C17.0401 29.5945 17.6961 29.7931 18.4001 29.7931C19.1041 29.7931 19.7601 29.5945 20.3361 29.2635C20.9281 28.9159 21.4241 28.4193 21.7921 27.8235C20.6241 26.2511 20.0001 24.3311 20.0001 22.3449C20.0001 22.1959 20.0001 22.0304 20.0001 21.8814C19.5201 21.6497 18.9761 21.5173 18.4001 21.5173ZM39.2001 21.5173C38.6241 21.5173 38.0801 21.6497 37.6001 21.8814C37.6001 22.0304 37.6001 22.1959 37.6001 22.3449C37.6001 24.3311 36.9761 26.2511 35.8081 27.8235C36.0001 28.138 36.2081 28.3862 36.4481 28.6345C36.7041 28.8828 36.9601 29.098 37.2641 29.2635C37.8401 29.5945 38.4961 29.7931 39.2001 29.7931C39.9041 29.7931 40.5601 29.5945 41.1361 29.2635C42.3521 28.5518 43.2001 27.2111 43.2001 25.6552C43.2001 24.5578 42.7787 23.5053 42.0285 22.7292C41.2784 21.9532 40.261 21.5173 39.2001 21.5173ZM28.8001 31.4483C25.0561 31.4483 17.6001 33.3849 17.6001 37.2414V39.7242H40.0001V37.2414C40.0001 33.3849 32.5441 31.4483 28.8001 31.4483ZM17.1361 32.3586C14.0481 32.7393 9.6001 34.3614 9.6001 37.2414V39.7242H14.4001V36.5297C14.4001 34.858 15.5041 33.4676 17.1361 32.3586ZM40.4641 32.3586C42.0961 33.4676 43.2001 34.858 43.2001 36.5297V39.7242H48.0001V37.2414C48.0001 34.3614 43.5521 32.7393 40.4641 32.3586ZM28.8001 34.7586C31.2481 34.7586 33.9841 35.5862 35.5681 36.4138H22.0321C23.6161 35.5862 26.3521 34.7586 28.8001 34.7586Z" fill="white"/>
</g>
<path d="M9.88009 16.0758L4.22009 10.2207L9.88009 4.3655L15.5401 10.2207L19.7801 5.83446V20.4621H5.64009L9.88009 16.0758ZM17.6601 10.9552L15.5401 13.1483L9.88009 7.29308L7.05009 10.2207L12.7101 16.0758L10.5901 18.2689H17.6601V10.9552Z" fill="white"/>
<defs>
<clipPath id="clip0">
<rect width="38.4" height="39.7241" fill="white" transform="translate(9.6001 8.27588)"/>
</clipPath>
</defs>
</svg>
