<?xml version="1.0" encoding="UTF-8"?>
<svg width="24" height="24" version="1.1" viewBox="0 0 6.3499 6.3499" xmlns="http://www.w3.org/2000/svg">
 <g transform="translate(357.86 -256.28)">
  <path d="m-356.11 257.07 0.47617 1.1906h1.905l0.47625-1.1906-0.95248 0.47624-0.47628-0.47624-0.47617 0.47624zm0.47617 1.6669c-0.9525 0.47619-1.1905 2.143-1.1905 2.143s-0.23818 0.95252 1.1905 0.95252h1.905c1.4287-1e-5 1.1906-0.95252 1.1906-0.95252s-0.23814-1.6668-1.1906-2.143zm0.24053 0.40225h1.418c0.70917 0.35457 0.88644 1.5952 0.88644 1.5952s0.17732 0.70925-0.88644 0.70925h-1.418c-1.0638 0-0.88651-0.70925-0.88651-0.70925s0.17734-1.2407 0.88651-1.5952z" stroke-width=".23812"/>
 </g>
</svg>
